<svg width="100%" viewBox="0 0 1200 220" xmlns="http://www.w3.org/2000/svg" role="img" aria-label="pixel skyline footer">
  <defs>
    <linearGradient id="skyGrad" x1="0%" y1="0%" x2="0%" y2="100%">
      <stop offset="0%" stop-color="#0D1117"/>
      <stop offset="100%" stop-color="#161B22"/>
    </linearGradient>
    <linearGradient id="horizon" x1="0%" y1="0%" x2="100%" y2="0%">
      <stop offset="0%" stop-color="#A855F7" stop-opacity="0"/>
      <stop offset="50%" stop-color="#A855F7"/>
      <stop offset="50%" stop-color="#38BDF8"/>
      <stop offset="100%" stop-color="#38BDF8" stop-opacity="0"/>
    </linearGradient>
    <filter id="glow2" x="-50%" y="-50%" width="200%" height="200%">
      <feGaussianBlur stdDeviation="4"/>
    </filter>
  </defs>

  <rect width="1200" height="220" fill="url(#skyGrad)"/>

  <g fill="#E6EDF3">
    <circle cx="80" cy="40" r="1.4" opacity="0.7"><animate attributeName="opacity" values="0.7;0.1;0.7" dur="3s" repeatCount="indefinite"/></circle>
    <circle cx="220" cy="25" r="1.2" opacity="0.5"><animate attributeName="opacity" values="0.5;0.9;0.5" dur="4s" repeatCount="indefinite"/></circle>
    <circle cx="360" cy="55" r="1.6" opacity="0.6"><animate attributeName="opacity" values="0.6;0.15;0.6" dur="2.6s" repeatCount="indefinite"/></circle>
    <circle cx="520" cy="30" r="1.2" opacity="0.8"><animate attributeName="opacity" values="0.8;0.3;0.8" dur="3.4s" repeatCount="indefinite"/></circle>
    <circle cx="700" cy="45" r="1.4" opacity="0.5"><animate attributeName="opacity" values="0.5;0.9;0.5" dur="3.8s" repeatCount="indefinite"/></circle>
    <circle cx="860" cy="22" r="1.3" opacity="0.7"><animate attributeName="opacity" values="0.7;0.2;0.7" dur="2.9s" repeatCount="indefinite"/></circle>
    <circle cx="980" cy="50" r="1.5" opacity="0.6"><animate attributeName="opacity" values="0.6;0.1;0.6" dur="3.6s" repeatCount="indefinite"/></circle>
    <circle cx="1120" cy="35" r="1.3" opacity="0.7"><animate attributeName="opacity" values="0.7;0.25;0.7" dur="3.1s" repeatCount="indefinite"/></circle>
  </g>

  <g fill="#1F2733">
    <rect x="0" y="150" width="60" height="70"/>
    <rect x="70" y="120" width="45" height="100"/>
    <rect x="130" y="160" width="70" height="60"/>
    <rect x="220" y="100" width="40" height="120"/>
    <rect x="280" y="140" width="55" height="80"/>
    <rect x="360" y="115" width="50" height="105"/>
    <rect x="430" y="155" width="65" height="65"/>
    <rect x="520" y="95" width="40" height="125"/>
    <rect x="580" y="135" width="55" height="85"/>
    <rect x="660" y="110" width="48" height="110"/>
    <rect x="730" y="150" width="70" height="70"/>
    <rect x="820" y="100" width="42" height="120"/>
    <rect x="880" y="140" width="58" height="80"/>
    <rect x="960" y="118" width="46" height="102"/>
    <rect x="1030" y="155" width="62" height="65"/>
    <rect x="1110" y="125" width="50" height="95"/>
  </g>

  <rect x="0" y="218" width="1200" height="2" fill="url(#horizon)" filter="url(#glow2)"/>

  <g fill="#0D1117">
    <rect x="20" y="170" width="50" height="50"/>
    <rect x="100" y="140" width="60" height="80"/>
    <rect x="190" y="175" width="45" height="45"/>
    <rect x="260" y="125" width="50" height="95"/>
    <rect x="340" y="160" width="65" height="60"/>
    <rect x="430" y="135" width="40" height="85"/>
    <rect x="500" y="170" width="55" height="50"/>
    <rect x="580" y="115" width="48" height="105"/>
    <rect x="660" y="155" width="60" height="65"/>
    <rect x="750" y="130" width="42" height="90"/>
    <rect x="820" y="165" width="58" height="55"/>
    <rect x="900" y="120" width="46" height="100"/>
    <rect x="980" y="158" width="64" height="62"/>
    <rect x="1070" y="138" width="50" height="82"/>
  </g>

  <g fill="#A855F7">
    <rect x="35" y="180" width="4" height="6" opacity="0.8"/>
    <rect x="115" y="155" width="4" height="6" opacity="0.6"/>
    <rect x="205" y="190" width="4" height="6" opacity="0.7"/>
    <rect x="280" y="145" width="4" height="6" opacity="0.5"/>
    <rect x="360" y="175" width="4" height="6" opacity="0.8"/>
    <rect x="450" y="155" width="4" height="6" opacity="0.6"/>
    <rect x="600" y="135" width="4" height="6" opacity="0.7"/>
    <rect x="680" y="170" width="4" height="6" opacity="0.5"/>
    <rect x="840" y="180" width="4" height="6" opacity="0.6"/>
    <rect x="1000" y="173" width="4" height="6" opacity="0.7"/>
  </g>
</svg>
